<svg width="40" height="48" viewBox="0 0 40 48" fill="none" xmlns="http://www.w3.org/2000/svg">
<path d="M3.06202 15.9801C1.40841 15.9801 0.0678711 17.3206 0.0678711 18.9743V32.9469C0.0678711 34.6005 1.40841 35.9411 3.06202 35.9411C4.71564 35.9411 6.05618 34.6005 6.05618 32.9469V18.9743C6.05618 17.3206 4.71564 15.9801 3.06202 15.9801Z" fill="#FF0043"/>
<path d="M36.9956 15.9801C35.342 15.9801 34.0015 17.3206 34.0015 18.9743V32.9469C34.0015 34.6005 35.342 35.9411 36.9956 35.9411C38.6492 35.9411 39.9898 34.6005 39.9898 32.9469V18.9743C39.9898 17.3206 38.6493 15.9801 36.9956 15.9801Z" fill="#FF0043"/>
<path d="M31.0074 15.9801H9.05033C8.49912 15.9801 8.05225 16.427 8.05225 16.9782V32.9469C8.05178 35.3187 9.72064 37.363 12.0445 37.8374V44.9235C12.0445 46.5772 13.385 47.9177 15.0386 47.9177C16.6922 47.9177 18.0328 46.5772 18.0328 44.9235V37.9372H22.025V44.9235C22.025 46.5772 23.3656 47.9177 25.0192 47.9177C26.6728 47.9177 28.0133 46.5772 28.0133 44.9235V37.8374C30.3372 37.363 32.006 35.3187 32.0056 32.9469V16.9782C32.0055 16.427 31.5586 15.9801 31.0074 15.9801Z" fill="#FF0043"/>
<path d="M27.2849 4.14718L29.7181 1.71593C30.1145 1.33296 30.1255 0.701192 29.7426 0.304654C29.3596 -0.0917903 28.7278 -0.102738 28.3313 0.28014C28.323 0.288186 28.3148 0.296327 28.3068 0.304654L25.4724 3.13918C22.0008 1.63116 18.0591 1.63116 14.5876 3.13918L11.7532 0.302689C11.3567 -0.0802815 10.7249 -0.0692405 10.3419 0.327204C9.96836 0.714011 9.96836 1.32716 10.3419 1.71387L12.7731 4.14709C9.80921 6.10826 8.03405 9.43186 8.05239 12.9858C8.05239 13.537 8.49926 13.9839 9.05047 13.9839H31.0076C31.5588 13.9839 32.0057 13.537 32.0057 12.9858C32.0239 9.43195 30.2488 6.10835 27.2849 4.14718Z" fill="#FF0043"/>
<circle cx="15.0386" cy="8.99369" r="0.998082" fill="#FAFAFA"/>
<circle cx="25.0191" cy="8.99369" r="0.998082" fill="#FAFAFA"/>
</svg>
