<svg width="40" height="48" viewBox="0 0 40 48" fill="none" xmlns="http://www.w3.org/2000/svg">
<path fill-rule="evenodd" clip-rule="evenodd" d="M22.8722 10.468C21.9428 10.8373 20.9775 11.0307 19.9735 11.004C19.7828 11.0013 19.7095 10.9507 19.6988 10.7493C19.5428 8.84933 20.0522 7.11067 20.9682 5.47333C22.5335 2.67733 24.9148 0.950667 28.0095 0.192C28.2742 0.125348 28.5467 0.0901898 28.8345 0.053057C28.9612 0.0367065 29.0909 0.0199732 29.2242 0C29.2289 0.127214 29.2347 0.247475 29.2404 0.363546C29.2489 0.539445 29.2569 0.705722 29.2602 0.872C29.3268 4.30133 27.1108 8.78533 22.8722 10.468ZM38.913 35.3626C38.9623 35.2177 39.011 35.0749 39.0602 34.936C35.3135 33.072 33.0282 30.2 32.7442 25.9547C32.4628 21.712 34.4002 18.5787 37.8028 16.2067C37.7793 16.1702 37.7455 16.1214 37.7131 16.0747L37.7002 16.056C36.3508 14.1627 34.5642 12.8627 32.3682 12.128C30.8188 11.6093 29.2268 11.3973 27.5948 11.5293C26.5042 11.616 25.4588 11.9227 24.4308 12.2973C23.4282 12.6693 22.4282 13.0493 21.4295 13.4307C20.5268 13.776 19.6295 13.776 18.7282 13.4373C17.7495 13.0707 16.7722 12.7013 15.7975 12.328C13.9455 11.6147 12.0562 11.428 10.1135 11.8853C6.88415 12.6413 4.42949 14.4747 2.68949 17.2733C1.30282 19.5 0.700152 21.9707 0.546819 24.5653C0.416152 26.7293 0.629486 28.864 1.07482 30.9813C2.10815 35.9053 4.24815 40.3013 7.43615 44.1893C8.10949 45.008 8.82949 45.7813 9.68682 46.416C10.3775 46.9267 11.1215 47.3227 11.9722 47.4813C12.9468 47.6653 13.9042 47.54 14.8268 47.2307C15.3817 47.0438 15.9243 46.8214 16.4668 46.5989C16.7025 46.5023 16.9382 46.4057 17.1748 46.312C19.3415 45.456 21.5322 45.3507 23.7348 46.1507C24.1744 46.3104 24.6056 46.4948 25.0367 46.6792C25.2712 46.7794 25.5057 46.8797 25.7415 46.976C26.6655 47.352 27.6242 47.5333 28.6228 47.5013C29.9522 47.4547 31.1015 46.944 32.1002 46.0987C32.6055 45.6733 33.0948 45.2147 33.5148 44.708C35.6908 42.1053 37.4842 39.2653 38.6655 36.0667C38.7533 35.8319 38.8341 35.5946 38.913 35.3626Z" fill="#FF0043"/>
</svg>
