<svg width="249" height="249" viewBox="0 0 249 249" fill="none" xmlns="http://www.w3.org/2000/svg">
<g opacity="0.348958">
<mask id="mask0_0_111" style="mask-type:luminance" maskUnits="userSpaceOnUse" x="0" y="0" width="249" height="249">
<path fill-rule="evenodd" clip-rule="evenodd" d="M0 0L248.945 0L248.945 248.945L0 248.945L0 0Z" fill="white"/>
</mask>
<g mask="url(#mask0_0_111)">
<circle cx="3.43035" cy="3.43035" r="3.43035" fill="#E0E0E0"/>
<circle cx="3.43035" cy="15.1916" r="3.43035" fill="#E0E0E0"/>
<circle cx="3.43035" cy="27.9328" r="3.43035" fill="#E0E0E0"/>
<circle cx="3.43035" cy="40.6741" r="3.43035" fill="#E0E0E0"/>
<circle cx="3.43035" cy="52.4354" r="3.43035" fill="#E0E0E0"/>
<circle cx="3.43035" cy="65.1767" r="3.43035" fill="#E0E0E0"/>
<circle cx="3.43035" cy="77.9179" r="3.43035" fill="#E0E0E0"/>
<circle cx="3.43035" cy="90.6592" r="3.43035" fill="#E0E0E0"/>
<circle cx="3.43035" cy="102.42" r="3.43035" fill="#E0E0E0"/>
<circle cx="3.43035" cy="115.162" r="3.43035" fill="#E0E0E0"/>
<circle cx="3.43035" cy="127.903" r="3.43035" fill="#E0E0E0"/>
<circle cx="3.43035" cy="139.664" r="3.43035" fill="#E0E0E0"/>
<circle cx="3.43035" cy="152.406" r="3.43035" fill="#E0E0E0"/>
<circle cx="3.43035" cy="165.147" r="3.43035" fill="#E0E0E0"/>
<circle cx="3.43035" cy="176.908" r="3.43035" fill="#E0E0E0"/>
<circle cx="3.43035" cy="189.649" r="3.43035" fill="#E0E0E0"/>
<circle cx="3.43035" cy="202.391" r="3.43035" fill="#E0E0E0"/>
<circle cx="3.43035" cy="215.132" r="3.43035" fill="#E0E0E0"/>
<circle cx="3.43035" cy="226.893" r="3.43035" fill="#E0E0E0"/>
<circle cx="3.43035" cy="239.634" r="3.43035" fill="#E0E0E0"/>
<circle cx="15.1916" cy="3.43035" r="3.43035" fill="#E0E0E0"/>
<circle cx="15.1916" cy="15.1916" r="3.43035" fill="#E0E0E0"/>
<circle cx="15.1916" cy="27.9328" r="3.43035" fill="#E0E0E0"/>
<circle cx="15.1916" cy="40.6741" r="3.43035" fill="#E0E0E0"/>
<circle cx="15.1916" cy="52.4354" r="3.43035" fill="#E0E0E0"/>
<circle cx="15.1916" cy="65.1767" r="3.43035" fill="#E0E0E0"/>
<circle cx="15.1916" cy="77.9179" r="3.43035" fill="#E0E0E0"/>
<circle cx="15.1916" cy="90.6592" r="3.43035" fill="#E0E0E0"/>
<circle cx="15.1916" cy="102.42" r="3.43035" fill="#E0E0E0"/>
<circle cx="15.1916" cy="115.162" r="3.43035" fill="#E0E0E0"/>
<circle cx="15.1916" cy="127.903" r="3.43035" fill="#E0E0E0"/>
<circle cx="15.1916" cy="139.664" r="3.43035" fill="#E0E0E0"/>
<circle cx="15.1916" cy="152.406" r="3.43035" fill="#E0E0E0"/>
<circle cx="15.1916" cy="165.147" r="3.43035" fill="#E0E0E0"/>
<circle cx="15.1916" cy="176.908" r="3.43035" fill="#E0E0E0"/>
<circle cx="15.1916" cy="189.649" r="3.43035" fill="#E0E0E0"/>
<circle cx="15.1916" cy="202.391" r="3.43035" fill="#E0E0E0"/>
<circle cx="15.1916" cy="215.132" r="3.43035" fill="#E0E0E0"/>
<circle cx="15.1916" cy="226.893" r="3.43035" fill="#E0E0E0"/>
<circle cx="15.1916" cy="239.634" r="3.43035" fill="#E0E0E0"/>
<circle cx="27.9328" cy="3.43035" r="3.43035" fill="#E0E0E0"/>
<circle cx="27.9328" cy="15.1916" r="3.43035" fill="#E0E0E0"/>
<circle cx="27.9328" cy="27.9328" r="3.43035" fill="#E0E0E0"/>
<circle cx="27.9328" cy="40.6741" r="3.43035" fill="#E0E0E0"/>
<circle cx="27.9328" cy="52.4354" r="3.43035" fill="#E0E0E0"/>
<circle cx="27.9328" cy="65.1767" r="3.43035" fill="#E0E0E0"/>
<circle cx="27.9328" cy="77.9179" r="3.43035" fill="#E0E0E0"/>
<circle cx="27.9328" cy="90.6592" r="3.43035" fill="#E0E0E0"/>
<circle cx="27.9328" cy="102.42" r="3.43035" fill="#E0E0E0"/>
<circle cx="27.9328" cy="115.162" r="3.43035" fill="#E0E0E0"/>
<circle cx="27.9328" cy="127.903" r="3.43035" fill="#E0E0E0"/>
<circle cx="27.9328" cy="139.664" r="3.43035" fill="#E0E0E0"/>
<circle cx="27.9328" cy="152.406" r="3.43035" fill="#E0E0E0"/>
<circle cx="27.9328" cy="165.147" r="3.43035" fill="#E0E0E0"/>
<circle cx="27.9328" cy="176.908" r="3.43035" fill="#E0E0E0"/>
<circle cx="27.9328" cy="189.649" r="3.43035" fill="#E0E0E0"/>
<circle cx="27.9328" cy="202.391" r="3.43035" fill="#E0E0E0"/>
<circle cx="27.9328" cy="215.132" r="3.43035" fill="#E0E0E0"/>
<circle cx="27.9328" cy="226.893" r="3.43035" fill="#E0E0E0"/>
<circle cx="27.9328" cy="239.634" r="3.43035" fill="#E0E0E0"/>
<circle cx="40.674" cy="3.43035" r="3.43035" fill="#E0E0E0"/>
<circle cx="40.674" cy="15.1916" r="3.43035" fill="#E0E0E0"/>
<circle cx="40.674" cy="27.9328" r="3.43035" fill="#E0E0E0"/>
<circle cx="40.674" cy="40.6741" r="3.43035" fill="#E0E0E0"/>
<circle cx="40.674" cy="52.4354" r="3.43035" fill="#E0E0E0"/>
<circle cx="40.674" cy="65.1767" r="3.43035" fill="#E0E0E0"/>
<circle cx="40.674" cy="77.9179" r="3.43035" fill="#E0E0E0"/>
<circle cx="40.674" cy="90.6592" r="3.43035" fill="#E0E0E0"/>
<circle cx="40.674" cy="102.42" r="3.43035" fill="#E0E0E0"/>
<circle cx="40.674" cy="115.162" r="3.43035" fill="#E0E0E0"/>
<circle cx="40.674" cy="127.903" r="3.43035" fill="#E0E0E0"/>
<circle cx="40.674" cy="139.664" r="3.43035" fill="#E0E0E0"/>
<circle cx="40.674" cy="152.406" r="3.43035" fill="#E0E0E0"/>
<circle cx="40.674" cy="165.147" r="3.43035" fill="#E0E0E0"/>
<circle cx="40.674" cy="176.908" r="3.43035" fill="#E0E0E0"/>
<circle cx="40.674" cy="189.649" r="3.43035" fill="#E0E0E0"/>
<circle cx="40.674" cy="202.391" r="3.43035" fill="#E0E0E0"/>
<circle cx="40.674" cy="215.132" r="3.43035" fill="#E0E0E0"/>
<circle cx="40.674" cy="226.893" r="3.43035" fill="#E0E0E0"/>
<circle cx="40.674" cy="239.634" r="3.43035" fill="#E0E0E0"/>
<circle cx="52.4352" cy="3.43035" r="3.43035" fill="#E0E0E0"/>
<circle cx="52.4352" cy="15.1916" r="3.43035" fill="#E0E0E0"/>
<circle cx="52.4352" cy="27.9328" r="3.43035" fill="#E0E0E0"/>
<circle cx="52.4352" cy="40.6741" r="3.43035" fill="#E0E0E0"/>
<circle cx="52.4352" cy="52.4354" r="3.43035" fill="#E0E0E0"/>
<circle cx="52.4352" cy="65.1767" r="3.43035" fill="#E0E0E0"/>
<circle cx="52.4352" cy="77.9179" r="3.43035" fill="#E0E0E0"/>
<circle cx="52.4352" cy="90.6592" r="3.43035" fill="#E0E0E0"/>
<circle cx="52.4352" cy="102.42" r="3.43035" fill="#E0E0E0"/>
<circle cx="52.4352" cy="115.162" r="3.43035" fill="#E0E0E0"/>
<circle cx="52.4352" cy="127.903" r="3.43035" fill="#E0E0E0"/>
<circle cx="52.4352" cy="139.664" r="3.43035" fill="#E0E0E0"/>
<circle cx="52.4352" cy="152.406" r="3.43035" fill="#E0E0E0"/>
<circle cx="52.4352" cy="165.147" r="3.43035" fill="#E0E0E0"/>
<circle cx="52.4352" cy="176.908" r="3.43035" fill="#E0E0E0"/>
<circle cx="52.4352" cy="189.649" r="3.43035" fill="#E0E0E0"/>
<circle cx="52.4352" cy="202.391" r="3.43035" fill="#E0E0E0"/>
<circle cx="52.4352" cy="215.132" r="3.43035" fill="#E0E0E0"/>
<circle cx="52.4352" cy="226.893" r="3.43035" fill="#E0E0E0"/>
<circle cx="52.4352" cy="239.634" r="3.43035" fill="#E0E0E0"/>
<circle cx="65.1764" cy="3.43035" r="3.43035" fill="#E0E0E0"/>
<circle cx="65.1764" cy="15.1916" r="3.43035" fill="#E0E0E0"/>
<circle cx="65.1764" cy="27.9328" r="3.43035" fill="#E0E0E0"/>
<circle cx="65.1764" cy="40.6741" r="3.43035" fill="#E0E0E0"/>
<circle cx="65.1764" cy="52.4354" r="3.43035" fill="#E0E0E0"/>
<circle cx="65.1764" cy="65.1767" r="3.43035" fill="#E0E0E0"/>
<circle cx="65.1764" cy="77.9179" r="3.43035" fill="#E0E0E0"/>
<circle cx="65.1764" cy="90.6592" r="3.43035" fill="#E0E0E0"/>
<circle cx="65.1764" cy="102.42" r="3.43035" fill="#E0E0E0"/>
<circle cx="65.1764" cy="115.162" r="3.43035" fill="#E0E0E0"/>
<circle cx="65.1764" cy="127.903" r="3.43035" fill="#E0E0E0"/>
<circle cx="65.1764" cy="139.664" r="3.43035" fill="#E0E0E0"/>
<circle cx="65.1764" cy="152.406" r="3.43035" fill="#E0E0E0"/>
<circle cx="65.1764" cy="165.147" r="3.43035" fill="#E0E0E0"/>
<circle cx="65.1764" cy="176.908" r="3.43035" fill="#E0E0E0"/>
<circle cx="65.1764" cy="189.649" r="3.43035" fill="#E0E0E0"/>
<circle cx="65.1764" cy="202.391" r="3.43035" fill="#E0E0E0"/>
<circle cx="65.1764" cy="215.132" r="3.43035" fill="#E0E0E0"/>
<circle cx="65.1764" cy="226.893" r="3.43035" fill="#E0E0E0"/>
<circle cx="65.1764" cy="239.634" r="3.43035" fill="#E0E0E0"/>
<circle cx="77.9181" cy="3.43035" r="3.43035" fill="#E0E0E0"/>
<circle cx="77.9181" cy="15.1916" r="3.43035" fill="#E0E0E0"/>
<circle cx="77.9181" cy="27.9328" r="3.43035" fill="#E0E0E0"/>
<circle cx="77.9181" cy="40.6741" r="3.43035" fill="#E0E0E0"/>
<circle cx="77.9181" cy="52.4354" r="3.43035" fill="#E0E0E0"/>
<circle cx="77.9181" cy="65.1767" r="3.43035" fill="#E0E0E0"/>
<circle cx="77.9181" cy="77.9179" r="3.43035" fill="#E0E0E0"/>
<circle cx="77.9181" cy="90.6592" r="3.43035" fill="#E0E0E0"/>
<circle cx="77.9181" cy="102.42" r="3.43035" fill="#E0E0E0"/>
<circle cx="77.9181" cy="115.162" r="3.43035" fill="#E0E0E0"/>
<circle cx="77.9181" cy="127.903" r="3.43035" fill="#E0E0E0"/>
<circle cx="77.9181" cy="139.664" r="3.43035" fill="#E0E0E0"/>
<circle cx="77.9181" cy="152.406" r="3.43035" fill="#E0E0E0"/>
<circle cx="77.9181" cy="165.147" r="3.43035" fill="#E0E0E0"/>
<circle cx="77.9181" cy="176.908" r="3.43035" fill="#E0E0E0"/>
<circle cx="77.9181" cy="189.649" r="3.43035" fill="#E0E0E0"/>
<circle cx="77.9181" cy="202.391" r="3.43035" fill="#E0E0E0"/>
<circle cx="77.9181" cy="215.132" r="3.43035" fill="#E0E0E0"/>
<circle cx="77.9181" cy="226.893" r="3.43035" fill="#E0E0E0"/>
<circle cx="77.9181" cy="239.634" r="3.43035" fill="#E0E0E0"/>
<circle cx="90.6594" cy="3.43035" r="3.43035" fill="#E0E0E0"/>
<circle cx="90.6594" cy="15.1916" r="3.43035" fill="#E0E0E0"/>
<circle cx="90.6594" cy="27.9328" r="3.43035" fill="#E0E0E0"/>
<circle cx="90.6594" cy="40.6741" r="3.43035" fill="#E0E0E0"/>
<circle cx="90.6594" cy="52.4354" r="3.43035" fill="#E0E0E0"/>
<circle cx="90.6594" cy="65.1767" r="3.43035" fill="#E0E0E0"/>
<circle cx="90.6594" cy="77.9179" r="3.43035" fill="#E0E0E0"/>
<circle cx="90.6594" cy="90.6592" r="3.43035" fill="#E0E0E0"/>
<circle cx="90.6594" cy="102.42" r="3.43035" fill="#E0E0E0"/>
<circle cx="90.6594" cy="115.162" r="3.43035" fill="#E0E0E0"/>
<circle cx="90.6594" cy="127.903" r="3.43035" fill="#E0E0E0"/>
<circle cx="90.6594" cy="139.664" r="3.43035" fill="#E0E0E0"/>
<circle cx="90.6594" cy="152.406" r="3.43035" fill="#E0E0E0"/>
<circle cx="90.6594" cy="165.147" r="3.43035" fill="#E0E0E0"/>
<circle cx="90.6594" cy="176.908" r="3.43035" fill="#E0E0E0"/>
<circle cx="90.6594" cy="189.649" r="3.43035" fill="#E0E0E0"/>
<circle cx="90.6594" cy="202.391" r="3.43035" fill="#E0E0E0"/>
<circle cx="90.6594" cy="215.132" r="3.43035" fill="#E0E0E0"/>
<circle cx="90.6594" cy="226.893" r="3.43035" fill="#E0E0E0"/>
<circle cx="90.6594" cy="239.634" r="3.43035" fill="#E0E0E0"/>
<circle cx="102.421" cy="3.43035" r="3.43035" fill="#E0E0E0"/>
<circle cx="102.421" cy="15.1916" r="3.43035" fill="#E0E0E0"/>
<circle cx="102.421" cy="27.9328" r="3.43035" fill="#E0E0E0"/>
<circle cx="102.421" cy="40.6741" r="3.43035" fill="#E0E0E0"/>
<circle cx="102.421" cy="52.4354" r="3.43035" fill="#E0E0E0"/>
<circle cx="102.421" cy="65.1767" r="3.43035" fill="#E0E0E0"/>
<circle cx="102.421" cy="77.9179" r="3.43035" fill="#E0E0E0"/>
<circle cx="102.421" cy="90.6592" r="3.43035" fill="#E0E0E0"/>
<circle cx="102.421" cy="102.42" r="3.43035" fill="#E0E0E0"/>
<circle cx="102.421" cy="115.162" r="3.43035" fill="#E0E0E0"/>
<circle cx="102.421" cy="127.903" r="3.43035" fill="#E0E0E0"/>
<circle cx="102.421" cy="139.664" r="3.43035" fill="#E0E0E0"/>
<circle cx="102.421" cy="152.406" r="3.43035" fill="#E0E0E0"/>
<circle cx="102.421" cy="165.147" r="3.43035" fill="#E0E0E0"/>
<circle cx="102.421" cy="176.908" r="3.43035" fill="#E0E0E0"/>
<circle cx="102.421" cy="189.649" r="3.43035" fill="#E0E0E0"/>
<circle cx="102.421" cy="202.391" r="3.43035" fill="#E0E0E0"/>
<circle cx="102.421" cy="215.132" r="3.43035" fill="#E0E0E0"/>
<circle cx="102.421" cy="226.893" r="3.43035" fill="#E0E0E0"/>
<circle cx="102.421" cy="239.634" r="3.43035" fill="#E0E0E0"/>
<circle cx="115.162" cy="3.43035" r="3.43035" fill="#E0E0E0"/>
<circle cx="115.162" cy="15.1916" r="3.43035" fill="#E0E0E0"/>
<circle cx="115.162" cy="27.9328" r="3.43035" fill="#E0E0E0"/>
<circle cx="115.162" cy="40.6741" r="3.43035" fill="#E0E0E0"/>
<circle cx="115.162" cy="52.4354" r="3.43035" fill="#E0E0E0"/>
<circle cx="115.162" cy="65.1767" r="3.43035" fill="#E0E0E0"/>
<circle cx="115.162" cy="77.9179" r="3.43035" fill="#E0E0E0"/>
<circle cx="115.162" cy="90.6592" r="3.43035" fill="#E0E0E0"/>
<circle cx="115.162" cy="102.42" r="3.43035" fill="#E0E0E0"/>
<circle cx="115.162" cy="115.162" r="3.43035" fill="#E0E0E0"/>
<circle cx="115.162" cy="127.903" r="3.43035" fill="#E0E0E0"/>
<circle cx="115.162" cy="139.664" r="3.43035" fill="#E0E0E0"/>
<circle cx="115.162" cy="152.406" r="3.43035" fill="#E0E0E0"/>
<circle cx="115.162" cy="165.147" r="3.43035" fill="#E0E0E0"/>
<circle cx="115.162" cy="176.908" r="3.43035" fill="#E0E0E0"/>
<circle cx="115.162" cy="189.649" r="3.43035" fill="#E0E0E0"/>
<circle cx="115.162" cy="202.391" r="3.43035" fill="#E0E0E0"/>
<circle cx="115.162" cy="215.132" r="3.43035" fill="#E0E0E0"/>
<circle cx="115.162" cy="226.893" r="3.43035" fill="#E0E0E0"/>
<circle cx="115.162" cy="239.634" r="3.43035" fill="#E0E0E0"/>
<circle cx="127.903" cy="3.43035" r="3.43035" fill="#E0E0E0"/>
<circle cx="127.903" cy="15.1916" r="3.43035" fill="#E0E0E0"/>
<circle cx="127.903" cy="27.9328" r="3.43035" fill="#E0E0E0"/>
<circle cx="127.903" cy="40.6741" r="3.43035" fill="#E0E0E0"/>
<circle cx="127.903" cy="52.4354" r="3.43035" fill="#E0E0E0"/>
<circle cx="127.903" cy="65.1767" r="3.43035" fill="#E0E0E0"/>
<circle cx="127.903" cy="77.9179" r="3.43035" fill="#E0E0E0"/>
<circle cx="127.903" cy="90.6592" r="3.43035" fill="#E0E0E0"/>
<circle cx="127.903" cy="102.42" r="3.43035" fill="#E0E0E0"/>
<circle cx="127.903" cy="115.162" r="3.43035" fill="#E0E0E0"/>
<circle cx="127.903" cy="127.903" r="3.43035" fill="#E0E0E0"/>
<circle cx="127.903" cy="139.664" r="3.43035" fill="#E0E0E0"/>
<circle cx="127.903" cy="152.406" r="3.43035" fill="#E0E0E0"/>
<circle cx="127.903" cy="165.147" r="3.43035" fill="#E0E0E0"/>
<circle cx="127.903" cy="176.908" r="3.43035" fill="#E0E0E0"/>
<circle cx="127.903" cy="189.649" r="3.43035" fill="#E0E0E0"/>
<circle cx="127.903" cy="202.391" r="3.43035" fill="#E0E0E0"/>
<circle cx="127.903" cy="215.132" r="3.43035" fill="#E0E0E0"/>
<circle cx="127.903" cy="226.893" r="3.43035" fill="#E0E0E0"/>
<circle cx="127.903" cy="239.634" r="3.43035" fill="#E0E0E0"/>
<circle cx="139.664" cy="3.43035" r="3.43035" fill="#E0E0E0"/>
<circle cx="139.664" cy="15.1916" r="3.43035" fill="#E0E0E0"/>
<circle cx="139.664" cy="27.9328" r="3.43035" fill="#E0E0E0"/>
<circle cx="139.664" cy="40.6741" r="3.43035" fill="#E0E0E0"/>
<circle cx="139.664" cy="52.4354" r="3.43035" fill="#E0E0E0"/>
<circle cx="139.664" cy="65.1767" r="3.43035" fill="#E0E0E0"/>
<circle cx="139.664" cy="77.9179" r="3.43035" fill="#E0E0E0"/>
<circle cx="139.664" cy="90.6592" r="3.43035" fill="#E0E0E0"/>
<circle cx="139.664" cy="102.42" r="3.43035" fill="#E0E0E0"/>
<circle cx="139.664" cy="115.162" r="3.43035" fill="#E0E0E0"/>
<circle cx="139.664" cy="127.903" r="3.43035" fill="#E0E0E0"/>
<circle cx="139.664" cy="139.664" r="3.43035" fill="#E0E0E0"/>
<circle cx="139.664" cy="152.406" r="3.43035" fill="#E0E0E0"/>
<circle cx="139.664" cy="165.147" r="3.43035" fill="#E0E0E0"/>
<circle cx="139.664" cy="176.908" r="3.43035" fill="#E0E0E0"/>
<circle cx="139.664" cy="189.649" r="3.43035" fill="#E0E0E0"/>
<circle cx="139.664" cy="202.391" r="3.43035" fill="#E0E0E0"/>
<circle cx="139.664" cy="215.132" r="3.43035" fill="#E0E0E0"/>
<circle cx="139.664" cy="226.893" r="3.43035" fill="#E0E0E0"/>
<circle cx="139.664" cy="239.634" r="3.43035" fill="#E0E0E0"/>
<circle cx="152.405" cy="3.43035" r="3.43035" fill="#E0E0E0"/>
<circle cx="152.405" cy="15.1916" r="3.43035" fill="#E0E0E0"/>
<circle cx="152.405" cy="27.9328" r="3.43035" fill="#E0E0E0"/>
<circle cx="152.405" cy="40.6741" r="3.43035" fill="#E0E0E0"/>
<circle cx="152.405" cy="52.4354" r="3.43035" fill="#E0E0E0"/>
<circle cx="152.405" cy="65.1767" r="3.43035" fill="#E0E0E0"/>
<circle cx="152.405" cy="77.9179" r="3.43035" fill="#E0E0E0"/>
<circle cx="152.405" cy="90.6592" r="3.43035" fill="#E0E0E0"/>
<circle cx="152.405" cy="102.42" r="3.43035" fill="#E0E0E0"/>
<circle cx="152.405" cy="115.162" r="3.43035" fill="#E0E0E0"/>
<circle cx="152.405" cy="127.903" r="3.43035" fill="#E0E0E0"/>
<circle cx="152.405" cy="139.664" r="3.43035" fill="#E0E0E0"/>
<circle cx="152.405" cy="152.406" r="3.43035" fill="#E0E0E0"/>
<circle cx="152.405" cy="165.147" r="3.43035" fill="#E0E0E0"/>
<circle cx="152.405" cy="176.908" r="3.43035" fill="#E0E0E0"/>
<circle cx="152.405" cy="189.649" r="3.43035" fill="#E0E0E0"/>
<circle cx="152.405" cy="202.391" r="3.43035" fill="#E0E0E0"/>
<circle cx="152.405" cy="215.132" r="3.43035" fill="#E0E0E0"/>
<circle cx="152.405" cy="226.893" r="3.43035" fill="#E0E0E0"/>
<circle cx="152.405" cy="239.634" r="3.43035" fill="#E0E0E0"/>
<circle cx="165.147" cy="3.43035" r="3.43035" fill="#E0E0E0"/>
<circle cx="165.147" cy="15.1916" r="3.43035" fill="#E0E0E0"/>
<circle cx="165.147" cy="27.9328" r="3.43035" fill="#E0E0E0"/>
<circle cx="165.147" cy="40.6741" r="3.43035" fill="#E0E0E0"/>
<circle cx="165.147" cy="52.4354" r="3.43035" fill="#E0E0E0"/>
<circle cx="165.147" cy="65.1767" r="3.43035" fill="#E0E0E0"/>
<circle cx="165.147" cy="77.9179" r="3.43035" fill="#E0E0E0"/>
<circle cx="165.147" cy="90.6592" r="3.43035" fill="#E0E0E0"/>
<circle cx="165.147" cy="102.42" r="3.43035" fill="#E0E0E0"/>
<circle cx="165.147" cy="115.162" r="3.43035" fill="#E0E0E0"/>
<circle cx="165.147" cy="127.903" r="3.43035" fill="#E0E0E0"/>
<circle cx="165.147" cy="139.664" r="3.43035" fill="#E0E0E0"/>
<circle cx="165.147" cy="152.406" r="3.43035" fill="#E0E0E0"/>
<circle cx="165.147" cy="165.147" r="3.43035" fill="#E0E0E0"/>
<circle cx="165.147" cy="176.908" r="3.43035" fill="#E0E0E0"/>
<circle cx="165.147" cy="189.649" r="3.43035" fill="#E0E0E0"/>
<circle cx="165.147" cy="202.391" r="3.43035" fill="#E0E0E0"/>
<circle cx="165.147" cy="215.132" r="3.43035" fill="#E0E0E0"/>
<circle cx="165.147" cy="226.893" r="3.43035" fill="#E0E0E0"/>
<circle cx="165.147" cy="239.634" r="3.43035" fill="#E0E0E0"/>
<circle cx="176.908" cy="3.43035" r="3.43035" fill="#E0E0E0"/>
<circle cx="176.908" cy="15.1916" r="3.43035" fill="#E0E0E0"/>
<circle cx="176.908" cy="27.9328" r="3.43035" fill="#E0E0E0"/>
<circle cx="176.908" cy="40.6741" r="3.43035" fill="#E0E0E0"/>
<circle cx="176.908" cy="52.4354" r="3.43035" fill="#E0E0E0"/>
<circle cx="176.908" cy="65.1767" r="3.43035" fill="#E0E0E0"/>
<circle cx="176.908" cy="77.9179" r="3.43035" fill="#E0E0E0"/>
<circle cx="176.908" cy="90.6592" r="3.43035" fill="#E0E0E0"/>
<circle cx="176.908" cy="102.42" r="3.43035" fill="#E0E0E0"/>
<circle cx="176.908" cy="115.162" r="3.43035" fill="#E0E0E0"/>
<circle cx="176.908" cy="127.903" r="3.43035" fill="#E0E0E0"/>
<circle cx="176.908" cy="139.664" r="3.43035" fill="#E0E0E0"/>
<circle cx="176.908" cy="152.406" r="3.43035" fill="#E0E0E0"/>
<circle cx="176.908" cy="165.147" r="3.43035" fill="#E0E0E0"/>
<circle cx="176.908" cy="176.908" r="3.43035" fill="#E0E0E0"/>
<circle cx="176.908" cy="189.649" r="3.43035" fill="#E0E0E0"/>
<circle cx="176.908" cy="202.391" r="3.43035" fill="#E0E0E0"/>
<circle cx="176.908" cy="215.132" r="3.43035" fill="#E0E0E0"/>
<circle cx="176.908" cy="226.893" r="3.43035" fill="#E0E0E0"/>
<circle cx="176.908" cy="239.634" r="3.43035" fill="#E0E0E0"/>
<circle cx="189.65" cy="3.43035" r="3.43035" fill="#E0E0E0"/>
<circle cx="189.65" cy="15.1916" r="3.43035" fill="#E0E0E0"/>
<circle cx="189.65" cy="27.9328" r="3.43035" fill="#E0E0E0"/>
<circle cx="189.65" cy="40.6741" r="3.43035" fill="#E0E0E0"/>
<circle cx="189.65" cy="52.4354" r="3.43035" fill="#E0E0E0"/>
<circle cx="189.65" cy="65.1767" r="3.43035" fill="#E0E0E0"/>
<circle cx="189.65" cy="77.9179" r="3.43035" fill="#E0E0E0"/>
<circle cx="189.65" cy="90.6592" r="3.43035" fill="#E0E0E0"/>
<circle cx="189.65" cy="102.42" r="3.43035" fill="#E0E0E0"/>
<circle cx="189.65" cy="115.162" r="3.43035" fill="#E0E0E0"/>
<circle cx="189.65" cy="127.903" r="3.43035" fill="#E0E0E0"/>
<circle cx="189.65" cy="139.664" r="3.43035" fill="#E0E0E0"/>
<circle cx="189.65" cy="152.406" r="3.43035" fill="#E0E0E0"/>
<circle cx="189.65" cy="165.147" r="3.43035" fill="#E0E0E0"/>
<circle cx="189.65" cy="176.908" r="3.43035" fill="#E0E0E0"/>
<circle cx="189.65" cy="189.649" r="3.43035" fill="#E0E0E0"/>
<circle cx="189.65" cy="202.391" r="3.43035" fill="#E0E0E0"/>
<circle cx="189.65" cy="215.132" r="3.43035" fill="#E0E0E0"/>
<circle cx="189.65" cy="226.893" r="3.43035" fill="#E0E0E0"/>
<circle cx="189.65" cy="239.634" r="3.43035" fill="#E0E0E0"/>
<circle cx="202.391" cy="3.43035" r="3.43035" fill="#E0E0E0"/>
<circle cx="202.391" cy="15.1916" r="3.43035" fill="#E0E0E0"/>
<circle cx="202.391" cy="27.9328" r="3.43035" fill="#E0E0E0"/>
<circle cx="202.391" cy="40.6741" r="3.43035" fill="#E0E0E0"/>
<circle cx="202.391" cy="52.4354" r="3.43035" fill="#E0E0E0"/>
<circle cx="202.391" cy="65.1767" r="3.43035" fill="#E0E0E0"/>
<circle cx="202.391" cy="77.9179" r="3.43035" fill="#E0E0E0"/>
<circle cx="202.391" cy="90.6592" r="3.43035" fill="#E0E0E0"/>
<circle cx="202.391" cy="102.42" r="3.43035" fill="#E0E0E0"/>
<circle cx="202.391" cy="115.162" r="3.43035" fill="#E0E0E0"/>
<circle cx="202.391" cy="127.903" r="3.43035" fill="#E0E0E0"/>
<circle cx="202.391" cy="139.664" r="3.43035" fill="#E0E0E0"/>
<circle cx="202.391" cy="152.406" r="3.43035" fill="#E0E0E0"/>
<circle cx="202.391" cy="165.147" r="3.43035" fill="#E0E0E0"/>
<circle cx="202.391" cy="176.908" r="3.43035" fill="#E0E0E0"/>
<circle cx="202.391" cy="189.649" r="3.43035" fill="#E0E0E0"/>
<circle cx="202.391" cy="202.391" r="3.43035" fill="#E0E0E0"/>
<circle cx="202.391" cy="215.132" r="3.43035" fill="#E0E0E0"/>
<circle cx="202.391" cy="226.893" r="3.43035" fill="#E0E0E0"/>
<circle cx="202.391" cy="239.634" r="3.43035" fill="#E0E0E0"/>
<circle cx="215.132" cy="3.43035" r="3.43035" fill="#E0E0E0"/>
<circle cx="215.132" cy="15.1916" r="3.43035" fill="#E0E0E0"/>
<circle cx="215.132" cy="27.9328" r="3.43035" fill="#E0E0E0"/>
<circle cx="215.132" cy="40.6741" r="3.43035" fill="#E0E0E0"/>
<circle cx="215.132" cy="52.4354" r="3.43035" fill="#E0E0E0"/>
<circle cx="215.132" cy="65.1767" r="3.43035" fill="#E0E0E0"/>
<circle cx="215.132" cy="77.9179" r="3.43035" fill="#E0E0E0"/>
<circle cx="215.132" cy="90.6592" r="3.43035" fill="#E0E0E0"/>
<circle cx="215.132" cy="102.42" r="3.43035" fill="#E0E0E0"/>
<circle cx="215.132" cy="115.162" r="3.43035" fill="#E0E0E0"/>
<circle cx="215.132" cy="127.903" r="3.43035" fill="#E0E0E0"/>
<circle cx="215.132" cy="139.664" r="3.43035" fill="#E0E0E0"/>
<circle cx="215.132" cy="152.406" r="3.43035" fill="#E0E0E0"/>
<circle cx="215.132" cy="165.147" r="3.43035" fill="#E0E0E0"/>
<circle cx="215.132" cy="176.908" r="3.43035" fill="#E0E0E0"/>
<circle cx="215.132" cy="189.649" r="3.43035" fill="#E0E0E0"/>
<circle cx="215.132" cy="202.391" r="3.43035" fill="#E0E0E0"/>
<circle cx="215.132" cy="215.132" r="3.43035" fill="#E0E0E0"/>
<circle cx="215.132" cy="226.893" r="3.43035" fill="#E0E0E0"/>
<circle cx="215.132" cy="239.634" r="3.43035" fill="#E0E0E0"/>
<circle cx="226.893" cy="3.43035" r="3.43035" fill="#E0E0E0"/>
<circle cx="226.893" cy="15.1916" r="3.43035" fill="#E0E0E0"/>
<circle cx="226.893" cy="27.9328" r="3.43035" fill="#E0E0E0"/>
<circle cx="226.893" cy="40.6741" r="3.43035" fill="#E0E0E0"/>
<circle cx="226.893" cy="52.4354" r="3.43035" fill="#E0E0E0"/>
<circle cx="226.893" cy="65.1767" r="3.43035" fill="#E0E0E0"/>
<circle cx="226.893" cy="77.9179" r="3.43035" fill="#E0E0E0"/>
<circle cx="226.893" cy="90.6592" r="3.43035" fill="#E0E0E0"/>
<circle cx="226.893" cy="102.42" r="3.43035" fill="#E0E0E0"/>
<circle cx="226.893" cy="115.162" r="3.43035" fill="#E0E0E0"/>
<circle cx="226.893" cy="127.903" r="3.43035" fill="#E0E0E0"/>
<circle cx="226.893" cy="139.664" r="3.43035" fill="#E0E0E0"/>
<circle cx="226.893" cy="152.406" r="3.43035" fill="#E0E0E0"/>
<circle cx="226.893" cy="165.147" r="3.43035" fill="#E0E0E0"/>
<circle cx="226.893" cy="176.908" r="3.43035" fill="#E0E0E0"/>
<circle cx="226.893" cy="189.649" r="3.43035" fill="#E0E0E0"/>
<circle cx="226.893" cy="202.391" r="3.43035" fill="#E0E0E0"/>
<circle cx="226.893" cy="215.132" r="3.43035" fill="#E0E0E0"/>
<circle cx="226.893" cy="226.893" r="3.43035" fill="#E0E0E0"/>
<circle cx="226.893" cy="239.634" r="3.43035" fill="#E0E0E0"/>
<circle cx="239.634" cy="3.43035" r="3.43035" fill="#E0E0E0"/>
<circle cx="239.634" cy="15.1916" r="3.43035" fill="#E0E0E0"/>
<circle cx="239.634" cy="27.9328" r="3.43035" fill="#E0E0E0"/>
<circle cx="239.634" cy="40.6741" r="3.43035" fill="#E0E0E0"/>
<circle cx="239.634" cy="52.4354" r="3.43035" fill="#E0E0E0"/>
<circle cx="239.634" cy="65.1767" r="3.43035" fill="#E0E0E0"/>
<circle cx="239.634" cy="77.9179" r="3.43035" fill="#E0E0E0"/>
<circle cx="239.634" cy="90.6592" r="3.43035" fill="#E0E0E0"/>
<circle cx="239.634" cy="102.42" r="3.43035" fill="#E0E0E0"/>
<circle cx="239.634" cy="115.162" r="3.43035" fill="#E0E0E0"/>
<circle cx="239.634" cy="127.903" r="3.43035" fill="#E0E0E0"/>
<circle cx="239.634" cy="139.664" r="3.43035" fill="#E0E0E0"/>
<circle cx="239.634" cy="152.406" r="3.43035" fill="#E0E0E0"/>
<circle cx="239.634" cy="165.147" r="3.43035" fill="#E0E0E0"/>
<circle cx="239.634" cy="176.908" r="3.43035" fill="#E0E0E0"/>
<circle cx="239.634" cy="189.649" r="3.43035" fill="#E0E0E0"/>
<circle cx="239.634" cy="202.391" r="3.43035" fill="#E0E0E0"/>
<circle cx="239.634" cy="215.132" r="3.43035" fill="#E0E0E0"/>
<circle cx="239.634" cy="226.893" r="3.43035" fill="#E0E0E0"/>
<circle cx="239.634" cy="239.634" r="3.43035" fill="#E0E0E0"/>
</g>
</g>
</svg>
