<svg width="21" height="20" viewBox="0 0 21 20" fill="none" xmlns="http://www.w3.org/2000/svg">
<path d="M16.9532 5.2853C16.2442 1.72791 12.7856 -0.581059 9.22824 0.127953C6.62634 0.646539 4.59187 2.67972 4.07168 5.2813C1.54938 5.57198 -0.259901 7.85229 0.0306226 10.3747C0.298084 12.6962 2.26432 14.4477 4.60116 14.4461H7.88501C8.24776 14.4461 8.54181 14.152 8.54181 13.7893C8.54181 13.4265 8.24776 13.1325 7.88501 13.1325H4.60116C2.78739 13.1217 1.32597 11.6429 1.33654 9.82926C1.34727 8.01549 2.82615 6.5539 4.63992 6.56463C4.97465 6.56463 5.25588 6.31287 5.29272 5.98006C5.62616 3.09757 8.23335 1.03107 11.116 1.36452C13.5395 1.64479 15.4513 3.55658 15.7315 5.98006C15.7866 6.31879 16.08 6.56687 16.4231 6.56463C18.2369 6.56463 19.7071 8.03487 19.7071 9.84864C19.7071 11.6622 18.2369 13.1325 16.4231 13.1325H13.1393C12.7765 13.1325 12.4825 13.4265 12.4825 13.7893C12.4825 14.152 12.7765 14.4461 13.1393 14.4461H16.4233C18.9622 14.4302 21.0077 12.3591 20.992 9.82013C20.9776 7.50795 19.2483 5.56622 16.9532 5.2853Z" fill="#FF0043"/>
<path d="M12.8337 15.7925L11.1687 17.458V9.19183C11.1687 8.82908 10.8747 8.53503 10.5121 8.53503C10.1493 8.53503 9.85526 8.82908 9.85526 9.19183V17.458L8.19028 15.7925C7.93835 15.5315 7.52243 15.5243 7.26153 15.7763C7.00064 16.0283 6.99343 16.444 7.24535 16.7049C7.2508 16.7105 7.25609 16.7158 7.26153 16.7211L10.047 19.5072C10.1078 19.5679 10.1799 19.6161 10.2592 19.6491C10.4208 19.7175 10.6032 19.7175 10.7649 19.6491C10.8442 19.6161 10.9163 19.5679 10.977 19.5072L13.7624 16.7211C14.0233 16.4692 14.0305 16.0534 13.7786 15.7925C13.5265 15.5316 13.1108 15.5244 12.8499 15.7763C12.8444 15.7816 12.839 15.7869 12.8337 15.7925Z" fill="#FF0043"/>
</svg>
