<svg width="42" height="48" viewBox="0 0 42 48" fill="none" xmlns="http://www.w3.org/2000/svg">
<path d="M41.2085 6.03033L21.2475 0.0420259C21.0606 -0.0139273 20.8614 -0.0139273 20.6746 0.0420259L0.713585 6.03033C0.290848 6.15655 0.00107013 6.54532 0.000976562 6.98649V28.9436C0.000976562 37.7684 13.4587 45.6191 20.6646 47.8627C20.8596 47.9239 21.0686 47.9239 21.2635 47.8627C28.4614 45.619 41.9191 37.7683 41.9191 28.9436V6.9864C41.9192 6.54579 41.6304 6.15721 41.2085 6.03033Z" fill="#FF0043"/>
<path d="M18.9638 31.9377C18.6989 31.9382 18.4447 31.8334 18.2572 31.6462L10.2728 23.6618C9.88994 23.2654 9.90089 22.6335 10.2973 22.2506C10.6841 21.8771 11.2973 21.8771 11.684 22.2506L18.9638 29.5283L32.2299 16.2623C32.6128 15.8658 33.2446 15.8548 33.6411 16.2378C34.0376 16.6207 34.0485 17.2525 33.6657 17.649C33.6576 17.6574 33.6495 17.6655 33.6411 17.6735L19.6685 31.6462C19.4814 31.8328 19.228 31.9376 18.9638 31.9377Z" fill="#FAFAFA"/>
</svg>
