<svg width="37" height="48" viewBox="0 0 37 48" fill="none" xmlns="http://www.w3.org/2000/svg">
<path d="M36.5625 9.84375V46.5938C36.5625 47.3813 35.9438 48 35.1562 48H1.40625C0.618656 48 0 47.3813 0 46.5938V1.40625C0 0.618656 0.618656 0 1.40625 0H23.9062L26.7188 4.92188L29.5312 7.03125L36.5625 9.84375Z" fill="#FF0043"/>
<path d="M36 8.71866L24.75 0.281156C24.497 0.112406 24.2156 0 23.9062 0V8.4375C23.9062 9.21412 24.5359 9.84375 25.3125 9.84375H36.5625C36.5625 9.39384 36.3656 8.97188 36 8.71866Z" fill="#D30037"/>
<path d="M13.8484 27.3779C13.4364 26.7201 13.6369 25.8522 14.2961 25.4402L20.778 21.3917C21.4345 20.9852 22.3051 21.1816 22.7143 21.8408C23.1264 22.4986 22.9258 23.3664 22.2667 23.7785L15.7847 27.827C15.1333 28.2341 14.2629 28.0424 13.8484 27.3779Z" fill="white"/>
<path d="M20.778 34.8582L14.2961 30.8097C13.6369 30.3977 13.4364 29.5299 13.8484 28.872C14.2604 28.2115 15.1338 28.0179 15.7847 28.423L22.2667 32.4715C22.9258 32.8835 23.1264 33.7513 22.7143 34.4092C22.2996 35.0741 21.4291 35.2652 20.778 34.8582Z" fill="white"/>
<path d="M12.6562 32.3438C10.3299 32.3438 8.4375 30.4513 8.4375 28.125C8.4375 25.7987 10.3299 23.9062 12.6562 23.9062C14.9826 23.9062 16.875 25.7987 16.875 28.125C16.875 30.4513 14.9826 32.3438 12.6562 32.3438Z" fill="white"/>
<path d="M23.9062 25.3125C21.5799 25.3125 19.6875 23.4201 19.6875 21.0938C19.6875 18.7674 21.5799 16.875 23.9062 16.875C26.2326 16.875 28.125 18.7674 28.125 21.0938C28.125 23.4201 26.2326 25.3125 23.9062 25.3125Z" fill="white"/>
<path d="M23.9062 39.375C21.5799 39.375 19.6875 37.4826 19.6875 35.1562C19.6875 32.8299 21.5799 30.9375 23.9062 30.9375C26.2326 30.9375 28.125 32.8299 28.125 35.1562C28.125 37.4826 26.2326 39.375 23.9062 39.375Z" fill="white"/>
</svg>
